<svg xmlns="http://www.w3.org/2000/svg" xmlns:xlink="http://www.w3.org/1999/xlink" version="1.1" x="0px" y="0px" viewBox="-202.2 401 100 125" style="enable-background:new -202.2 401 100 100;" xml:space="preserve"><g><path d="M-104.8,491l-17.9-80.7c-0.2-0.7-0.8-1.1-1.4-1.1h-9.9c0,0,0,0-0.1,0l0,0h-9.8c-0.4,0-0.7,0.1-1,0.4   c-0.3-0.2-0.6-0.4-1-0.4h-25.7c-0.2,0-0.4,0-0.6,0.1c-0.2-0.1-0.4-0.1-0.6-0.1h-25.7c-0.9,0-1.5,0.7-1.5,1.5v80.6   c0,0.9,0.7,1.5,1.5,1.5h25.7c0.2,0,0.4,0,0.6-0.1c0.2,0.1,0.4,0.1,0.6,0.1h25.7c0.9,0,1.5-0.7,1.5-1.5v-75.6l16.8,75.9   c0.2,0.7,0.8,1.1,1.4,1.1h9.8c0,0,0,0,0.1,0l0,0h9.8c0.5,0,0.9-0.2,1.1-0.6C-104.8,491.9-104.7,491.4-104.8,491z M-174.2,477h-21.3   c-0.6,0-1.1,0.4-1.3,0.9v-53.4c0.2,0.6,0.8,0.9,1.3,0.9h21.3C-174.2,425.2-174.2,477-174.2,477z M-170,425.3h22.7V477H-170V425.3z    M-147.3,412.2v10.2H-170v-10.2H-147.3z M-174.2,412.2v10.2h-21.3c-0.6,0-1.1,0.4-1.3,0.9v-11H-174.2z M-196.8,489.8V479   c0.2,0.6,0.8,0.9,1.3,0.9h21.3v9.9H-196.8L-196.8,489.8z M-170,489.8V480h22.7v9.9L-170,489.8L-170,489.8z M-124.7,489.8   l-17.2-77.6h6.7l17.2,77.7L-124.7,489.8L-124.7,489.8z M-114.9,489.8l-17.2-77.6h6.7l17.2,77.7L-114.9,489.8L-114.9,489.8z"/><path d="M-190.9,433.2h10.8c0.9,0,1.5-0.7,1.5-1.5s-0.7-1.5-1.5-1.5h-10.8c-0.9,0-1.5,0.7-1.5,1.5S-191.8,433.2-190.9,433.2z"/><path d="M-190.9,440.5h10.8c0.9,0,1.5-0.7,1.5-1.5c0-0.9-0.7-1.5-1.5-1.5h-10.8c-0.9,0-1.5,0.7-1.5,1.5S-191.8,440.5-190.9,440.5z"/><path d="M-164,433.2h10.8c0.9,0,1.5-0.7,1.5-1.5s-0.7-1.5-1.5-1.5H-164c-0.9,0-1.5,0.7-1.5,1.5S-164.9,433.2-164,433.2z"/><path d="M-153.2,437.6H-164c-0.9,0-1.5,0.7-1.5,1.5s0.7,1.5,1.5,1.5h10.8c0.9,0,1.5-0.7,1.5-1.5S-152.3,437.6-153.2,437.6z"/></g><text x="-202.2" y="516" fill="#000000" font-size="5px" font-weight="bold" font-family="'Helvetica Neue', Helvetica, Arial-Unicode, Arial, Sans-serif">Created by Annie Lin</text><text x="-202.2" y="521" fill="#000000" font-size="5px" font-weight="bold" font-family="'Helvetica Neue', Helvetica, Arial-Unicode, Arial, Sans-serif">from the Noun Project</text></svg>