<svg xmlns="http://www.w3.org/2000/svg" xmlns:xlink="http://www.w3.org/1999/xlink" version="1.1" x="0px" y="0px" viewBox="-202.2 401 100 125" style="enable-background:new -202.2 401 100 100;" xml:space="preserve"><g><path d="M-108.3,449.1c0-4.7-2.9-8.9-7.2-10.6V417c0-5.5-4.4-9.9-9.9-9.9h-53.1c-5.5,0-9.9,4.4-9.9,9.9v21.3   c-4.6,1.6-7.8,5.9-7.8,10.8v26.4c0,0.9,0.7,1.6,1.6,1.6h4.1v8.1c0,0.1,0,0.3,0.1,0.4c0.5,5.3,5,9.5,10.5,9.5   c5.4,0,9.9-4.2,10.5-9.5c0-0.1,0.1-0.3,0.1-0.4V477h34.7v8.1c0,0.1,0,0.3,0.1,0.4c0.5,5.3,5,9.5,10.5,9.5c5.5,0,9.9-4.2,10.5-9.5   c0-0.1,0.1-0.3,0.1-0.4V477h3.9c0.4,0,0.8-0.2,1.1-0.5s0.5-0.7,0.5-1.1L-108.3,449.1z M-172.6,484.5c0,4.1-3.3,7.4-7.4,7.4   s-7.4-3.3-7.4-7.4V477h14.7L-172.6,484.5L-172.6,484.5z M-116.9,484.5c0,4.1-3.3,7.4-7.4,7.4c-4.1,0-7.4-3.3-7.4-7.4V477h14.7v7.5   H-116.9z M-193.1,473.9v-24.8c0-3.8,2.7-7.2,6.5-8.1c0.7-0.2,1.2-0.8,1.2-1.5v-22.6c0-3.7,3-6.7,6.7-6.7h53.1c3.7,0,6.7,3,6.7,6.7   v22.7c0,0.5,0.2,0.9,0.6,1.2c0.2,0.2,0.5,0.3,0.9,0.4c3.4,1.1,5.8,4.3,5.8,7.9v24.8C-111.6,473.9-193.1,473.9-193.1,473.9z"/><path d="M-141.1,458.9c-6.8,1.4-14.5,1.4-21.5,0c-0.9-0.2-1.7,0.4-1.8,1.2c-0.2,0.9,0.4,1.7,1.2,1.8c3.7,0.7,7.5,1.1,11.3,1.1   c4,0,7.8-0.4,11.4-1.1c0.9-0.2,1.4-1,1.2-1.9C-139.5,459.3-140.3,458.7-141.1,458.9z"/><circle cx="-124.3" cy="453.9" r="6"/><circle cx="-180" cy="453.9" r="6"/><path d="M-125.3,424.9V423c0-4.1-3.3-7.4-7.4-7.4h-1.6h-35.8h-1.6c-4.1,0-7.4,3.3-7.4,7.4v1.9v17.4h53.7L-125.3,424.9L-125.3,424.9   z M-128.4,424.9v14.2h-47.5v-14.2V423c0-2.3,1.9-4.2,4.2-4.2h1.6h30.1l-16.6,8.8c-0.8,0.4-1.1,1.4-0.7,2.1c0.3,0.5,0.8,0.8,1.4,0.8   c0.2,0,0.5-0.1,0.7-0.2l20.4-10.8c0.3-0.2,0.6-0.4,0.7-0.8h1.4c2.3,0,4.2,1.9,4.2,4.2v2H-128.4z"/><path d="M-124.3,487.8c2.7,0,4.9-2.2,4.9-4.9c0-0.9-0.7-1.6-1.6-1.6s-1.6,0.7-1.6,1.6s-0.8,1.7-1.7,1.7c-0.9,0-1.6,0.7-1.6,1.6   C-125.9,487.1-125.2,487.8-124.3,487.8z"/><path d="M-161.7,430.3l-4.5,2.4c-0.8,0.4-1.1,1.4-0.7,2.1c0.3,0.5,0.8,0.8,1.4,0.8c0.2,0,0.5-0.1,0.7-0.2l4.5-2.4   c0.8-0.4,1.1-1.4,0.7-2.1C-160,430.2-160.9,429.9-161.7,430.3z"/><path d="M-134.7,424.2l-16.1,8.5c-0.8,0.4-1.1,1.4-0.7,2.1c0.3,0.5,0.8,0.8,1.4,0.8c0.2,0,0.5-0.1,0.7-0.2l16.1-8.4   c0.8-0.4,1.1-1.4,0.7-2.1C-133,424.1-134,423.8-134.7,424.2z"/></g><text x="-202.2" y="516" fill="#000000" font-size="5px" font-weight="bold" font-family="'Helvetica Neue', Helvetica, Arial-Unicode, Arial, Sans-serif">Created by Annie Lin</text><text x="-202.2" y="521" fill="#000000" font-size="5px" font-weight="bold" font-family="'Helvetica Neue', Helvetica, Arial-Unicode, Arial, Sans-serif">from the Noun Project</text></svg>