<svg xmlns="http://www.w3.org/2000/svg" xmlns:xlink="http://www.w3.org/1999/xlink" version="1.1" x="0px" y="0px" viewBox="-224 401 100 125" style="enable-background:new -224 401 100 100;" xml:space="preserve"><g><path d="M-158.7,407.1c-0.4-0.1-0.9-0.1-1.3,0.1c-0.4,0.2-0.7,0.6-0.8,1c-1.6,6-7,10.2-13.2,10.2s-11.6-4.2-13.2-10.2   c-0.1-0.4-0.4-0.8-0.8-1c-0.4-0.2-0.8-0.2-1.3-0.1c-18.6,6.5-31.2,24.1-31.2,43.8c0,3.6,0.4,7.3,1.3,10.9c0.2,0.7,0.8,1.2,1.5,1.2   h17.2v30.4c0,0.9,0.7,1.6,1.6,1.6h50.2c0.9,0,1.6-0.7,1.6-1.6V463h16.7c0.7,0,1.4-0.5,1.5-1.2c0.9-3.6,1.3-7.2,1.3-10.9   C-127.5,431.2-140.1,413.6-158.7,407.1z M-131.6,459.9h-15.5v-7.3h9.2c0.9,0,1.6-0.7,1.6-1.6s-0.7-1.6-1.6-1.6h-9.2v-4.5h7   c0.9,0,1.6-0.7,1.6-1.6s-0.7-1.6-1.6-1.6h-7.2c-0.2,0-0.5,0.1-0.7,0.2c-0.2-0.1-0.4-0.2-0.7-0.2c-0.9,0-1.6,0.7-1.6,1.6v48.5h-47   v-48.5c0-0.9-0.7-1.6-1.6-1.6c-0.9,0-1.6,0.7-1.6,1.6v16.6h-16c-0.6-2.9-0.9-5.9-0.9-8.9c0-17.9,11-33.9,27.5-40.3   c2.5,6.5,8.7,10.9,15.7,10.9s13.5-4.5,16-11c16.5,6.5,27.5,22.5,27.5,40.3C-130.7,453.9-131,456.9-131.6,459.9z"/><path d="M-157.1,455c-0.9,0-1.6,0.7-1.6,1.6v3.6c0,0.9,0.7,1.6,1.6,1.6c0.9,0,1.6-0.7,1.6-1.6v-3.6   C-155.5,455.7-156.2,455-157.1,455z"/><path d="M-157.1,468.8c-0.9,0-1.6,0.7-1.6,1.6v13.2h-5.4c-0.9,0-1.6,0.7-1.6,1.6s0.7,1.6,1.6,1.6h6.9c0.9,0,1.6-0.7,1.6-1.6v-14.8   C-155.5,469.5-156.2,468.8-157.1,468.8z"/></g><text x="-224" y="516" fill="#000000" font-size="5px" font-weight="bold" font-family="'Helvetica Neue', Helvetica, Arial-Unicode, Arial, Sans-serif">Created by Annie Lin</text><text x="-224" y="521" fill="#000000" font-size="5px" font-weight="bold" font-family="'Helvetica Neue', Helvetica, Arial-Unicode, Arial, Sans-serif">from the Noun Project</text></svg>