<svg xmlns="http://www.w3.org/2000/svg" xmlns:xlink="http://www.w3.org/1999/xlink" version="1.1" x="0px" y="0px" viewBox="0 0 100 125" enable-background="new 0 0 100 100" xml:space="preserve"><path d="M62.307,87c-3.823,1.275-7.904,1.982-12.149,2C28.654,89.087,11.088,71.663,11,50.158  C10.913,28.654,28.337,11.088,49.842,11S88.912,28.337,89,49.842c0.022,5.379-1.052,10.512-3.012,15.186l4.292,0.004  c1.773-4.735,2.742-9.858,2.72-15.206C92.903,26.115,73.535,6.904,49.825,7C26.115,7.097,6.904,26.464,7,50.174  C7.097,73.884,26.464,93.096,50.174,93c7.92-0.032,15.332-2.224,21.695-6H62.307z"/><path d="M50,37c-7.18,0-13,5.82-13,13s5.82,13,13,13s13-5.82,13-13S57.18,37,50,37z M50,60c-5.523,0-10-4.477-10-10  c0-5.523,4.477-10,10-10s10,4.477,10,10C60,55.523,55.523,60,50,60z"/><path d="M50,44c-3.314,0-6,2.686-6,6s2.686,6,6,6s6-2.686,6-6S53.314,44,50,44z M50,53c-1.657,0-3-1.343-3-3s1.343-3,3-3  s3,1.343,3,3S51.657,53,50,53z"/><path d="M30.255,58.491l-2.775,1.15c2.522,5.869,7.273,10.56,13.182,13.006l1.15-2.775C36.635,67.729,32.472,63.627,30.255,58.491z"/><path d="M69.871,41.811l2.776-1.15c-2.446-5.909-7.137-10.66-13.006-13.182l-1.15,2.775C63.627,32.472,67.729,36.635,69.871,41.811z  "/><path d="M22.397,61.746l-2.772,1.148c3.385,7.944,9.8,14.296,17.784,17.604l1.148-2.771C31.305,74.723,25.478,68.957,22.397,61.746z  "/><path d="M77.727,38.557l2.771-1.148c-3.308-7.984-9.66-14.399-17.604-17.784l-1.148,2.772  C68.957,25.478,74.723,31.305,77.727,38.557z"/><path d="M93,67H55c-1.1,0-2,0.9-2,2v14c0,1.1,0.9,2,2,2h38c1.1,0,2-0.9,2-2V69C95,67.9,94.1,67,93,67z M67.737,78.354  c-0.224,0.739-0.562,1.378-1.016,1.915c-0.454,0.538-1.02,0.961-1.697,1.269C64.346,81.847,63.549,82,62.631,82h-5.175V70.005h5.175  c0.772,0,1.492,0.124,2.158,0.37s1.243,0.616,1.73,1.108c0.487,0.493,0.868,1.108,1.143,1.848s0.411,1.607,0.411,2.604  C68.073,76.809,67.962,77.615,67.737,78.354z M75.201,82h-2.973l-3.881-11.995h2.704l2.672,8.434h0.033l2.705-8.434h2.722L75.201,82  z M90.657,78.354c-0.224,0.739-0.562,1.378-1.016,1.915c-0.454,0.538-1.02,0.961-1.697,1.269C87.266,81.847,86.468,82,85.55,82  h-5.175V70.005h5.175c0.772,0,1.492,0.124,2.158,0.37s1.243,0.616,1.73,1.108c0.487,0.493,0.868,1.108,1.143,1.848  s0.411,1.607,0.411,2.604C90.993,76.809,90.882,77.615,90.657,78.354z"/><path d="M64.679,73.298c-0.269-0.347-0.624-0.613-1.066-0.798s-0.988-0.277-1.638-0.277h-1.882v7.56h2.352  c0.381,0,0.751-0.061,1.109-0.185c0.358-0.123,0.678-0.327,0.957-0.613c0.28-0.285,0.504-0.657,0.672-1.117  c0.169-0.459,0.253-1.019,0.253-1.68c0-0.604-0.06-1.15-0.177-1.638C65.141,74.062,64.949,73.646,64.679,73.298z"/><path d="M87.599,73.298c-0.269-0.347-0.624-0.613-1.066-0.798s-0.988-0.277-1.638-0.277h-1.882v7.56h2.352  c0.381,0,0.751-0.061,1.109-0.185c0.358-0.123,0.678-0.327,0.957-0.613c0.28-0.285,0.504-0.657,0.672-1.117  c0.169-0.459,0.253-1.019,0.253-1.68c0-0.604-0.06-1.15-0.177-1.638C88.061,74.062,87.869,73.646,87.599,73.298z"/><text x="0" y="115" fill="#000000" font-size="5px" font-weight="bold" font-family="'Helvetica Neue', Helvetica, Arial-Unicode, Arial, Sans-serif">Created by Jamison Wieser</text><text x="0" y="120" fill="#000000" font-size="5px" font-weight="bold" font-family="'Helvetica Neue', Helvetica, Arial-Unicode, Arial, Sans-serif">from the Noun Project</text></svg>