<svg xmlns="http://www.w3.org/2000/svg" xmlns:xlink="http://www.w3.org/1999/xlink" version="1.1" x="0px" y="0px" viewBox="-202.2 401 100 125" style="enable-background:new -202.2 401 100 100;" xml:space="preserve"><g><path d="M-110.6,407h-83.3c-0.9,0-1.6,0.7-1.6,1.6v63.9c0,0.9,0.7,1.6,1.6,1.6h28.7v4.9h-8.7c-0.9,0-1.6,0.7-1.6,1.6v12.9   c0,0.9,0.7,1.6,1.6,1.6h43.2c0.9,0,1.6-0.7,1.6-1.6v-13c0-0.9-0.7-1.6-1.6-1.6h-8.7V474h28.7c0.9,0,1.6-0.7,1.6-1.6v-63.8   C-109.1,407.7-109.8,407-110.6,407z M-142.5,478.9h-7.1c-0.9,0-1.6,0.7-1.6,1.6s0.7,1.6,1.6,1.6h8.6h8.7v3.1h-8.7   c-0.9,0-1.6,0.7-1.6,1.6c0,0.9,0.7,1.6,1.6,1.6h8.7v3.5h-40v-9.8h8.7c0.9,0,1.6-0.7,1.6-1.6V474h19.4v4.9H-142.5z M-112.2,470.9   h-80.1v-60.7h80.1V470.9z"/><path d="M-185.8,454.3h67.1c0.9,0,1.6-0.7,1.6-1.6v-35.4c0-0.9-0.7-1.6-1.6-1.6h-67.1c-0.9,0-1.6,0.7-1.6,1.6v35.5   C-187.4,453.6-186.7,454.3-185.8,454.3z M-184.2,418.9h63.9v16.2h-9c-0.9,0-1.6,0.7-1.6,1.6c0,0.9,0.7,1.6,1.6,1.6h9v4.7h-17.8   c-0.9,0-1.6,0.7-1.6,1.6s0.7,1.6,1.6,1.6h17.8v5h-63.9V418.9z"/><path d="M-118.7,459.2c-0.9,0-1.6,0.7-1.6,1.6v3.1h-6.5c-0.9,0-1.6,0.7-1.6,1.6c0,0.9,0.7,1.6,1.6,1.6h8.1c0.9,0,1.6-0.7,1.6-1.6   v-4.7C-117.1,459.9-117.8,459.2-118.7,459.2z"/><path d="M-135.2,463.9h-16.4c-0.9,0-1.6,0.7-1.6,1.6s0.7,1.6,1.6,1.6h16.4c0.9,0,1.6-0.7,1.6-1.6S-134.4,463.9-135.2,463.9z"/><path d="M-170.3,423.7h-7.7c-0.9,0-1.6,0.7-1.6,1.6v8.8c0,0.9,0.7,1.6,1.6,1.6s1.6-0.7,1.6-1.6v-7.2h6.1c0.9,0,1.6-0.7,1.6-1.6   C-168.7,424.4-169.5,423.7-170.3,423.7z"/></g><text x="-202.2" y="516" fill="#000000" font-size="5px" font-weight="bold" font-family="'Helvetica Neue', Helvetica, Arial-Unicode, Arial, Sans-serif">Created by Annie Lin</text><text x="-202.2" y="521" fill="#000000" font-size="5px" font-weight="bold" font-family="'Helvetica Neue', Helvetica, Arial-Unicode, Arial, Sans-serif">from the Noun Project</text></svg>