<svg xmlns="http://www.w3.org/2000/svg" xmlns:xlink="http://www.w3.org/1999/xlink" version="1.1" x="0px" y="0px" viewBox="-202.2 401 100 125" style="enable-background:new -202.2 401 100 100;" xml:space="preserve"><g><path d="M-109.6,454.4h-1.7V446c0-0.9-0.7-1.6-1.6-1.6h-5.5v-35.8c0-0.9-0.7-1.6-1.6-1.6h-64.5c-0.9,0-1.6,0.7-1.6,1.6v35.9h-5.5   c-0.9,0-1.6,0.7-1.6,1.6v8.4h-1.7c-0.9,0-1.6,0.7-1.6,1.6v21v5.5v10.9c0,0.9,0.7,1.6,1.6,1.6c0.9,0,1.6-0.7,1.6-1.6V484h82.1v9.4   c0,0.9,0.7,1.6,1.6,1.6s1.6-0.7,1.6-1.6v-10.9V477v-21C-108,455.1-108.7,454.4-109.6,454.4z M-168.5,439.6v-9.7   c0-2.1,1.7-3.8,3.8-3.8h24.9c2.1,0,3.8,1.7,3.8,3.8v9.7c0,2.1-1.7,3.8-3.8,3.8h-24.9C-166.8,443.4-168.5,441.7-168.5,439.6z    M-182.9,410.2h61.4v5c-0.1,0-0.3-0.1-0.5-0.1h-15.5c-0.9,0-1.6,0.7-1.6,1.6c0,0.9,0.7,1.6,1.6,1.6h15.5c0.2,0,0.3,0,0.5-0.1v25.2   H-134c0.7-1.1,1.1-2.4,1.1-3.8v-9.7c0-3.8-3.1-6.9-6.9-6.9h-24.9c-3.8,0-6.9,3.1-6.9,6.9v9.7c0,1.4,0.4,2.7,1.1,3.8h-12.4V410.2z    M-190,447.7h75.5v6.8H-190V447.7z M-193.3,480.9V477v-19.4h1.7h78.7h1.7v5h-27.5c-0.9,0-1.6,0.7-1.6,1.6c0,0.9,0.7,1.6,1.6,1.6   h27.5v5.4h-8.8c-0.9,0-1.6,0.7-1.6,1.6c0,0.9,0.7,1.6,1.6,1.6h8.8v2.6v3.9H-193.3z"/><path d="M-180.3,471.2h-4.7c-0.9,0-1.6,0.7-1.6,1.6c0,0.9,0.7,1.6,1.6,1.6h4.7c0.9,0,1.6-0.7,1.6-1.6   C-178.7,471.9-179.4,471.2-180.3,471.2z"/><path d="M-130.8,471.2h-37.5c-0.9,0-1.6,0.7-1.6,1.6c0,0.9,0.7,1.6,1.6,1.6h37.5c0.9,0,1.6-0.7,1.6-1.6   C-129.2,471.9-130,471.2-130.8,471.2z"/></g><text x="-202.2" y="516" fill="#000000" font-size="5px" font-weight="bold" font-family="'Helvetica Neue', Helvetica, Arial-Unicode, Arial, Sans-serif">Created by Annie Lin</text><text x="-202.2" y="521" fill="#000000" font-size="5px" font-weight="bold" font-family="'Helvetica Neue', Helvetica, Arial-Unicode, Arial, Sans-serif">from the Noun Project</text></svg>