<svg xmlns="http://www.w3.org/2000/svg" xmlns:xlink="http://www.w3.org/1999/xlink" version="1.1" x="0px" y="0px" viewBox="-202.2 401 100 125" style="enable-background:new -202.2 401 100 100;" xml:space="preserve"><g><path d="M-108.6,441c0-0.1,0-0.1,0-0.2v-0.1v-0.1c0-0.1,0-0.1-0.1-0.1c0,0,0-0.1-0.1-0.1c0-0.1-0.1-0.1-0.1-0.1s0,0,0-0.1l-1.5-1.8   v-29.8c0-0.9-0.7-1.6-1.6-1.6h-14.7c-0.9,0-1.6,0.7-1.6,1.6v9.2l-8.7-10.2l0,0l-0.1-0.1l-0.1-0.1l-0.1-0.1l-0.1-0.1   c0,0-0.1,0-0.1-0.1c-0.1,0-0.1,0-0.2,0h-0.1c-0.1,0-0.1,0-0.2,0c0,0,0,0-0.1,0h-29.5c0,0,0,0-0.1,0h-0.1h-0.1h-0.1h-0.1h-0.1h-0.1   h-0.1c0,0,0,0-0.1,0c0,0-0.1,0-0.1,0.1c0,0-0.1,0-0.1,0.1l0,0l0,0l-0.1,0.1l0,0l-26.8,32.7c0,0,0,0,0,0.1c0,0-0.1,0.1-0.1,0.2   c0,0,0,0.1-0.1,0.1c0,0.1,0,0.1-0.1,0.2v0.1v0.1c0,0.1,0,0.1,0,0.2c0,0,0,0,0,0.1v52.3c0,0.9,0.7,1.6,1.6,1.6h84.2   c0.9,0,1.6-0.7,1.6-1.6L-108.6,441C-108.6,441.1-108.6,441.1-108.6,441z M-125.1,420.5v-10.3h11.4v24.5l-11.6-13.5   C-125.2,421-125.1,420.7-125.1,420.5z M-167.5,411l25.7,28.5H-191L-167.5,411z M-139.8,491.8h-53v-49.1h53V491.8z M-164,410.2h25.1   l11.6,13.5h-3.7c-0.9,0-1.6,0.7-1.6,1.6c0,0.9,0.7,1.6,1.6,1.6h6.3h0.1l3.9,4.6h-9.4c-0.9,0-1.6,0.7-1.6,1.6s0.7,1.6,1.6,1.6h12.1   l4.4,5.1h-23.9L-164,410.2z M-111.7,464.7h-15c-0.9,0-1.6,0.7-1.6,1.6c0,0.9,0.7,1.6,1.6,1.6h14.9v5.6h-7.9c-0.9,0-1.6,0.7-1.6,1.6   c0,0.9,0.7,1.6,1.6,1.6h7.9v5.8h-17.3c-0.9,0-1.6,0.7-1.6,1.6c0,0.9,0.7,1.6,1.6,1.6h17.4v6.2h-24.9v-49.2h24.9V464.7z"/><rect x="-179.7" y="449.5" width="8.9" height="8.9"/><rect x="-167.5" y="449.5" width="8.9" height="8.9"/><rect x="-179.7" y="461.6" width="8.9" height="8.9"/><rect x="-167.5" y="461.6" width="8.9" height="8.9"/><path d="M-155.8,485.7h8.7c0.9,0,1.6-0.7,1.6-1.6v-9c0-0.9-0.7-1.6-1.6-1.6c-0.9,0-1.6,0.7-1.6,1.6v7.4h-7.1   c-0.9,0-1.6,0.7-1.6,1.6S-156.7,485.7-155.8,485.7z"/><path d="M-163.1,482.5h-1.5c-0.9,0-1.6,0.7-1.6,1.6s0.7,1.6,1.6,1.6h1.5c0.9,0,1.6-0.7,1.6-1.6S-162.2,482.5-163.1,482.5z"/></g><text x="-202.2" y="516" fill="#000000" font-size="5px" font-weight="bold" font-family="'Helvetica Neue', Helvetica, Arial-Unicode, Arial, Sans-serif">Created by Annie Lin</text><text x="-202.2" y="521" fill="#000000" font-size="5px" font-weight="bold" font-family="'Helvetica Neue', Helvetica, Arial-Unicode, Arial, Sans-serif">from the Noun Project</text></svg>