<svg xmlns="http://www.w3.org/2000/svg" xmlns:xlink="http://www.w3.org/1999/xlink" version="1.1" x="0px" y="0px" viewBox="-202.2 401 100 125" style="enable-background:new -202.2 401 100 100;" xml:space="preserve"><g><path d="M-104.7,432.9C-104.7,432.9-104.7,432.8-104.7,432.9c0.1-0.1,0.1-0.1,0.1-0.2v-0.1v-0.1c0,0,0,0,0-0.1v-0.1v-0.1   c0-0.1,0-0.1,0-0.2c0-0.1,0-0.1,0-0.2c0,0,0,0,0-0.1v-0.1c0-0.1,0-0.1,0-0.2c0,0,0,0,0-0.1l-9.1-21l0,0c-0.1-0.1-0.1-0.2-0.2-0.3   c0,0,0,0,0-0.1c-0.1-0.1-0.2-0.2-0.3-0.3h-0.1l-0.1-0.1c0,0-0.1,0-0.1-0.1h-0.1c-0.1,0-0.3-0.1-0.4-0.1l0,0h-74.4l0,0   c-0.1,0-0.3,0-0.4,0.1h-0.1h-0.1c-0.1,0-0.1,0.1-0.1,0.1h-0.1c-0.1,0.1-0.2,0.2-0.3,0.3c0,0,0,0,0,0.1c-0.1,0.1-0.1,0.2-0.2,0.3   l0,0l-9.1,21.3c0,0,0,0,0,0.1c0,0.1,0,0.1,0,0.2v0.1c0,0,0,0,0,0.1c0,0.1,0,0.1,0,0.2c0,0.1,0,0.1,0,0.2c0,0.1,0,0.1,0,0.1v0.1   c0,0,0,0,0,0.1v0.1v0.1c0,0,0,0,0,0.1c0,0,0,0.1,0.1,0.1c0,0,0,0.1,0.1,0.1c0,0,0,0,0,0.1l0,0l46.2,58.9l0,0l0,0l0,0l0.1,0.1   l0.1,0.1c0,0,0.1,0,0.1,0.1c0,0,0.1,0,0.1,0.1c0,0,0.1,0,0.1,0.1l0,0c0,0,0.1,0,0.2,0.1h0.1c0,0,0,0,0.1,0s0.2,0,0.3,0l0,0l0,0l0,0   l0,0c0.1,0,0.2,0,0.3,0c0,0,0,0,0.1,0h0.1c0.1,0,0.1,0,0.2-0.1l0,0c0,0,0.1,0,0.1-0.1c0,0,0.1,0,0.1-0.1c0,0,0.1,0,0.1-0.1l0.1-0.1   l0.1-0.1l0,0l0,0l0,0l46-59.1l0,0C-104.8,433-104.8,432.9-104.7,432.9C-104.8,432.9-104.8,432.9-104.7,432.9z M-113,438.5h-8.8   c-0.9,0-1.5,0.7-1.5,1.5s0.7,1.5,1.5,1.5h6.5l-30.2,38.6l21.5-46.4h14.8L-113,438.5z M-189.3,414.6l7.5,16.1h-14.3L-189.3,414.6z    M-108.3,430.7h-14.3l7.5-16.1L-108.3,430.7z M-152.3,455.5c-0.9,0-1.5,0.7-1.5,1.5v27.3l-23.4-50.8h49.9l-23.4,50.8V457   C-150.8,456.2-151.4,455.5-152.3,455.5z M-174.3,430.7l22.1-17.9l22.1,17.9H-174.3z M-125.7,430.4l-22.3-18h30.6L-125.7,430.4z    M-178.8,430.4l-8.3-18h30.6L-178.8,430.4z M-180.5,433.6L-159,480l-36.4-46.4H-180.5z"/><path d="M-150.8,441.2c0-0.9-0.7-1.5-1.5-1.5c-0.9,0-1.5,0.7-1.5,1.5v7c0,0.9,0.7,1.5,1.5,1.5c0.9,0,1.5-0.7,1.5-1.5V441.2z"/></g><text x="-202.2" y="516" fill="#000000" font-size="5px" font-weight="bold" font-family="'Helvetica Neue', Helvetica, Arial-Unicode, Arial, Sans-serif">Created by Annie Lin</text><text x="-202.2" y="521" fill="#000000" font-size="5px" font-weight="bold" font-family="'Helvetica Neue', Helvetica, Arial-Unicode, Arial, Sans-serif">from the Noun Project</text></svg>