<svg xmlns="http://www.w3.org/2000/svg" xmlns:xlink="http://www.w3.org/1999/xlink" version="1.1" x="0px" y="0px" viewBox="-202.2 401 100 125" style="enable-background:new -202.2 401 100 100;" xml:space="preserve"><g><path d="M-107.2,425.2h-18v-14.1c0-0.9-0.7-1.6-1.6-1.6h-50.9c-0.9,0-1.6,0.7-1.6,1.6v14.1h-18c-0.9,0-1.6,0.7-1.6,1.6v64.1   c0,0.9,0.7,1.6,1.6,1.6h90.1c0.9,0,1.6-0.7,1.6-1.6v-64.1C-105.6,425.9-106.4,425.2-107.2,425.2z M-176.1,412.7h47.8v12.6h-47.8   V412.7z M-195.7,489.3v-61h18h50.9h18v37.5h-15c-0.9,0-1.6,0.7-1.6,1.6c0,0.9,0.7,1.6,1.6,1.6h15v4.3h-9.9c-0.9,0-1.6,0.7-1.6,1.6   c0,0.9,0.7,1.6,1.6,1.6h9.9v3.8h-21.3c-0.9,0-1.6,0.7-1.6,1.6c0,0.9,0.7,1.6,1.6,1.6h21.3v5.8L-195.7,489.3L-195.7,489.3z"/><path d="M-130.3,466.3v-14.9c0-0.9-0.7-1.6-1.6-1.6h-11.3v-11.4c0-0.9-0.7-1.6-1.6-1.6h-14.9c-0.9,0-1.6,0.7-1.6,1.6v11.4h-11.4   c-0.9,0-1.6,0.7-1.6,1.6v14.9c0,0.9,0.7,1.6,1.6,1.6h11.4v11.4c0,0.9,0.7,1.6,1.6,1.6h14.9c0.9,0,1.6-0.7,1.6-1.6v-11.4h11.4   C-131,467.9-130.3,467.2-130.3,466.3z M-133.4,464.7h-11.4c-0.9,0-1.6,0.7-1.6,1.6v11.4h-11.7v-11.4c0-0.9-0.7-1.6-1.6-1.6h-11.4   V453h11.4c0.9,0,1.6-0.7,1.6-1.6V440h11.8v11.4c0,0.9,0.7,1.6,1.6,1.6h11.4L-133.4,464.7L-133.4,464.7z"/><path d="M-176.9,434.1h-11.6c-0.9,0-1.6,0.7-1.6,1.6v13.7c0,0.9,0.7,1.6,1.6,1.6c0.9,0,1.6-0.7,1.6-1.6v-12.2h10   c0.9,0,1.6-0.7,1.6-1.6S-176.1,434.1-176.9,434.1z"/><path d="M-188.5,455.5c-0.9,0-1.6,0.7-1.6,1.6v4.2c0,0.9,0.7,1.6,1.6,1.6c0.9,0,1.6-0.7,1.6-1.6v-4.2   C-186.9,456.2-187.6,455.5-188.5,455.5z"/></g><text x="-202.2" y="516" fill="#000000" font-size="5px" font-weight="bold" font-family="'Helvetica Neue', Helvetica, Arial-Unicode, Arial, Sans-serif">Created by Annie Lin</text><text x="-202.2" y="521" fill="#000000" font-size="5px" font-weight="bold" font-family="'Helvetica Neue', Helvetica, Arial-Unicode, Arial, Sans-serif">from the Noun Project</text></svg>