<svg xmlns="http://www.w3.org/2000/svg" xmlns:xlink="http://www.w3.org/1999/xlink" version="1.1" x="0px" y="0px" viewBox="-202.2 401 100 125" style="enable-background:new -202.2 401 100 100;" xml:space="preserve"><g><path d="M-106.3,423.9l-0.2-0.2l0,0c0-0.1-0.1-0.1-0.1-0.1l-0.1-0.1l-0.1-0.1l-0.1-0.1h-0.1c-0.1,0-0.1-0.1-0.2-0.1h-0.1   c-0.1,0-0.2,0-0.2,0s0,0-0.1,0s-0.2,0-0.2,0s0,0-0.1,0c-0.4,0-0.7-0.1-0.9-0.4c-0.2-0.3-0.2-0.6-0.1-1c0.1-0.2,0.2-0.3,0.3-0.4   c0.6-0.4,0.8-1.3,0.4-1.9c-0.4-0.6-1.3-0.8-1.9-0.4c-0.1,0.1-0.3,0.2-0.4,0.2c-0.4,0-0.6-0.1-0.9-0.4c-0.2-0.3-0.2-0.6-0.1-1v-0.1   c0,0,0-0.1,0.1-0.2c0-0.1,0-0.1,0-0.2v-0.1c0-0.1,0-0.1,0-0.2v-0.1c0-0.1,0-0.1,0-0.2v-0.1c0-0.1,0-0.1,0-0.2c0,0,0-0.1-0.1-0.1   c0-0.1-0.1-0.1-0.1-0.2v-0.1l-0.2-0.3c-0.2-0.3-0.5-0.5-0.9-0.5c-0.4-0.1-0.7,0-1.1,0.3l-11.9,8.5c-0.4,0.3-0.6,0.6-0.6,1.1l-0.1,3   c0,0.3,0.1,0.6,0.3,0.9l0.4,0.7c-0.1,0-0.2,0.1-0.3,0.2l-27.8,19.4c0-0.3-0.1-0.6-0.3-0.9c-3.6-5.2-8.4-8.1-12.4-7.6   c-2.2,0.3-5.1,1.7-7.1,6.7c-1.9,5.2-4.2,5.6-7.4,4.3c-0.1,0-0.2-0.1-0.3-0.1l-2.3-0.4c-3.5-0.3-7.1,0.6-10.1,2.7   c-3.4,2.3-5.6,5.8-6.3,9.8c-0.7,4,0.2,8,2.6,11.4l5.3,7.5c2.3,3.4,5.8,5.6,9.8,6.3c0.9,0.2,1.8,0.3,2.6,0.3c3.1,0,6.1-1,8.6-2.7   c2.7-1.9,4.7-5.1,4.9-5.6c0.9-1.2,1.3-2.7,1.8-4.3c0.7-2.3,1.3-4.7,3.4-5.9c1.9-1.1,3.4-1.1,4.9-1c1.5,0.1,3,0.1,4.4-0.9   c2.6-1.7,3.6-3.4,3.7-3.5c0.3-0.4,0.3-1.1,0-1.5c-0.3-0.4-0.8-0.7-1.3-0.6c-0.2,0-4.4,0.5-6.8-2.7c-0.8-1.1-0.4-1.9,1.2-3.8   c1.1-1.3,2.6-3.1,2.2-5.1l27.8-19.5c0.1-0.1,0.2-0.1,0.3-0.2l0.4,0.7c0.2,0.3,0.4,0.4,0.7,0.5l2.9,1c0.2,0.1,0.3,0.1,0.4,0.1   c0.3,0,0.5-0.1,0.8-0.3l12.1-8.5C-106,425.4-105.9,424.5-106.3,423.9z M-168.5,460.3l-1.9-2.7c-0.4-0.6-1.3-0.8-1.9-0.4l-4.5,3.2   c-0.3,0.2-0.5,0.5-0.5,0.9c-0.1,0.4,0,0.7,0.3,1.1l5.5,7.8c0.3,0.4,0.7,0.6,1.1,0.6c0.3,0,0.5-0.1,0.8-0.3l4.5-3.2   c0.3-0.2,0.5-0.5,0.5-0.9c0.1-0.4,0-0.7-0.3-1.1l-2-2.8l11.2-7.9c-0.2,0.2-0.4,0.4-0.6,0.7c-1.4,1.7-3.6,4.2-1.4,7.3   c1.8,2.4,4.2,3.4,6.1,3.7c-0.3,0.3-0.6,0.4-1,0.7c-0.7,0.4-1.4,0.4-2.7,0.4c-1.8-0.1-3.9-0.2-6.4,1.3c-3,1.8-3.9,4.9-4.7,7.5   c-0.4,1.4-0.8,2.6-1.4,3.5c0,0.1-0.1,0.1-0.1,0.2c0,0-1.7,3.1-4.1,4.8c-2.7,1.9-6,2.6-9.3,2s-6.1-2.4-8-5.1l-5.3-7.5   c-3.9-5.5-2.5-13.2,3.2-17.2c2.1-1.5,4.6-2.3,7.1-2.3c0.4,0,0.7,0,1,0l2,0.4c5.1,1.9,8.6-0.1,10.9-6c1.1-3,2.7-4.7,4.8-4.9   c2.9-0.4,6.7,2.2,9.7,6.4c0.2,0.3,0.4,0.4,0.7,0.5L-168.5,460.3z M-168.1,465.7l-2.2,1.6l-3.9-5.5l2.2-1.6L-168.1,465.7z    M-119.7,431.7l-1.8-0.6l-1.9-2.8l0.1-1.9l9.4-6.6c0.1,0.3,0.3,0.5,0.4,0.8c0.5,0.7,1.2,1.2,2,1.4c-0.1,0.8,0.2,1.7,0.6,2.4   c0.2,0.3,0.4,0.4,0.6,0.7L-119.7,431.7z"/><path d="M-105.1,431.1l-0.7-1.1c-0.4-0.6-1.3-0.8-1.9-0.4s-0.8,1.3-0.4,1.9l0.7,1.1c0.3,0.4,0.7,0.6,1.1,0.6c0.3,0,0.5-0.1,0.8-0.3   C-104.8,432.6-104.6,431.8-105.1,431.1z"/><path d="M-119.6,415.4c0.3,0.4,0.7,0.6,1.1,0.6c0.3,0,0.5-0.1,0.8-0.3c0.6-0.4,0.8-1.3,0.4-1.9l-0.7-1.1c-0.4-0.6-1.3-0.8-1.9-0.4   s-0.8,1.3-0.4,1.9L-119.6,415.4z"/><path d="M-109.9,433c-0.4-0.6-1.3-0.8-1.9-0.4c-0.6,0.4-0.8,1.3-0.4,1.9l0.7,1.1c0.3,0.4,0.7,0.6,1.1,0.6c0.3,0,0.5-0.1,0.8-0.3   c0.6-0.4,0.8-1.3,0.4-1.9L-109.9,433z"/><path d="M-123.7,418.3c0.3,0.4,0.7,0.6,1.1,0.6c0.3,0,0.5-0.1,0.8-0.3c0.6-0.4,0.8-1.3,0.4-1.9l-0.7-1.1c-0.4-0.6-1.3-0.8-1.9-0.4   c-0.6,0.4-0.8,1.3-0.4,1.9L-123.7,418.3z"/><path d="M-114.1,435.9c-0.4-0.6-1.3-0.8-1.9-0.4c-0.6,0.4-0.8,1.3-0.4,1.9l0.7,1.1c0.3,0.4,0.7,0.6,1.1,0.6c0.3,0,0.5-0.1,0.8-0.3   c0.6-0.4,0.8-1.3,0.4-1.9L-114.1,435.9z"/><path d="M-127.8,421.2c0.3,0.4,0.7,0.6,1.1,0.6c0.3,0,0.5-0.1,0.8-0.3c0.6-0.4,0.8-1.3,0.4-1.9l-0.7-1.1c-0.4-0.6-1.3-0.8-1.9-0.4   c-0.6,0.4-0.8,1.3-0.4,1.9L-127.8,421.2z"/><path d="M-181.4,463.4c-0.6,0.4-0.8,1.3-0.4,1.9l5.5,7.8c0.3,0.4,0.7,0.6,1.1,0.6c0.3,0,0.5-0.1,0.8-0.3c0.6-0.4,0.8-1.3,0.4-1.9   l-5.5-7.8C-179.9,463.2-180.7,463.1-181.4,463.4z"/></g><text x="-202.2" y="516" fill="#000000" font-size="5px" font-weight="bold" font-family="'Helvetica Neue', Helvetica, Arial-Unicode, Arial, Sans-serif">Created by Annie Lin</text><text x="-202.2" y="521" fill="#000000" font-size="5px" font-weight="bold" font-family="'Helvetica Neue', Helvetica, Arial-Unicode, Arial, Sans-serif">from the Noun Project</text></svg>