<svg xmlns="http://www.w3.org/2000/svg" xmlns:xlink="http://www.w3.org/1999/xlink" version="1.1" x="0px" y="0px" viewBox="-224 401 100 125" style="enable-background:new -224 401 100 100;" xml:space="preserve"><g><circle cx="-190.7" cy="453.3" r="2.9"/><circle cx="-157.2" cy="453.3" r="2.9"/><path d="M-165.5,463.4c-0.7-0.3-1.5,0.1-1.7,0.8c-0.4,1-1.5,1.7-2.6,1.7s-2.2-0.7-2.5-1.7c0-0.1,0.1-0.3,0.1-0.3   c0-0.4-0.3-0.9-0.6-1.1c1.8-0.4,3.2-2.1,3.2-2.6c0-0.7-1.9-1.2-4.3-1.2c-2.3,0-4.3,0.5-4.3,1.2c0,0.5,1.4,2.2,3.2,2.6   c-0.3,0.3-0.6,0.7-0.6,1.1c0,0.2,0,0.3,0.1,0.3c-0.4,1-1.4,1.7-2.5,1.7s-2.2-0.7-2.6-1.7c-0.3-0.7-1-1-1.7-0.8s-1,1-0.8,1.7   c0.8,2.1,2.9,3.6,5.1,3.6c1.7,0,3.1-0.7,4.2-1.9c1,1.1,2.5,1.9,4.2,1.9c2.3,0,4.4-1.4,5.1-3.6   C-164.4,464.5-164.8,463.6-165.5,463.4z"/><path d="M-127.4,468.5l-12.6-3.4c1-2.4,1.5-5,1.6-7.8l11-3c0.7-0.2,1.1-1,1-1.7c-0.2-0.7-1-1.1-1.7-1l-10.4,2.9   c-0.1-1.3-0.3-2.5-0.7-3.7c0.1-0.2,0.2-0.4,0.2-0.7l-1.7-31.3c-0.1-1-0.7-1.9-1.7-2.3s-2-0.4-2.8,0L-174,430l-28.6-13.6   c-0.9-0.5-2-0.5-2.9-0.1c-1,0.4-1.6,1.4-1.7,2.4l-1.7,31.2c0,0.3,0.1,0.5,0.2,0.8c-0.3,1.1-0.5,2.3-0.7,3.7l-10.4-2.9   c-0.7-0.2-1.5,0.3-1.7,1s0.3,1.5,1,1.7l11,3.1c0.1,2.8,0.6,5.4,1.6,7.8l-12.6,3.4c-0.7,0.2-1.1,1-1,1.7c0.2,0.6,0.7,1,1.3,1   c0.1,0,0.3,0,0.3-0.1l13.1-3.6c5.7,11.2,19.8,18.4,32.7,18.4c13,0,27-7.2,32.7-18.4l13.1,3.6c0.1,0,0.3,0.1,0.3,0.1   c0.6,0,1.1-0.4,1.3-1C-126.3,469.4-126.7,468.7-127.4,468.5z M-144,418.7c0.1-0.1,0.2-0.1,0.3,0c0.1,0,0.2,0.1,0.2,0.2l1.4,25.7   c-1.5-2.2-3.3-4.1-5.5-5.7v-0.1l-0.3-9.5c0-0.8-0.6-1.3-1.4-1.3l0,0c-0.8,0-1.4,0.6-1.3,1.4l0.2,7.5c-5.5-3.3-12.3-5.3-19.3-5.9   L-144,418.7z M-204.4,418.9c0-0.1,0.1-0.2,0.2-0.2s0.2-0.1,0.3,0.1l25.7,12.2c-11.3,1-22.2,5.6-27.6,13.7L-204.4,418.9z    M-174,483.3c-11.8,0-24.6-6.4-30.1-16.4l1.7-0.4c0.7-0.2,1.1-1,1-1.7s-1-1.1-1.7-1l-2.2,0.6c-0.7-2.1-1.2-4.2-1.4-6.4l3.6,1   c0.1,0,0.3,0.1,0.3,0.1c0.6,0,1.1-0.4,1.3-1c0.2-0.7-0.3-1.5-1-1.7l-4.3-1.1c1-14.2,17-21.7,32.6-21.7c15.7,0,31.6,7.4,32.6,21.7   l-4.3,1.1c-0.7,0.2-1.1,1-1,1.7c0.2,0.6,0.7,1,1.3,1c0.1,0,0.3,0,0.3-0.1l3.6-1c-0.2,2.3-0.6,4.4-1.4,6.4l-2.2-0.6   c-0.7-0.2-1.5,0.3-1.7,1s0.3,1.5,1,1.7l1.7,0.4C-149.3,476.9-162.2,483.3-174,483.3z"/></g><text x="-224" y="516" fill="#000000" font-size="5px" font-weight="bold" font-family="'Helvetica Neue', Helvetica, Arial-Unicode, Arial, Sans-serif">Created by Annie Lin</text><text x="-224" y="521" fill="#000000" font-size="5px" font-weight="bold" font-family="'Helvetica Neue', Helvetica, Arial-Unicode, Arial, Sans-serif">from the Noun Project</text></svg>