<svg xmlns="http://www.w3.org/2000/svg" xmlns:xlink="http://www.w3.org/1999/xlink" version="1.1" x="0px" y="0px" viewBox="-224 401 100 125" style="enable-background:new -224 401 100 100;" xml:space="preserve"><path d="M-126.4,465.2L-126.4,465.2l-1.5-18.1l0,0V447l-1.1-13l0,0c0-0.1,0-0.1,0-0.2v-0.1v-0.1c0-0.1,0-0.1-0.1-0.2l0,0  c-0.2-0.4-0.6-0.6-1-0.6l0,0c-0.1,0-0.2,0-0.2,0l0,0c-0.1,0-0.1,0-0.2,0h-0.1c-0.1,0-0.1,0-0.2,0.1c0,0-0.1,0-0.1,0.1  c0,0-0.1,0-0.1,0.1c-0.1,0-0.1,0.1-0.2,0.1l0,0c-3.9,3.4-8.9,5.1-14.1,5.1c-7.1,0-13.8-3.5-17.8-9.3l0,0l0,0l0,0  c-0.4-0.5-1.1-0.6-1.7-0.2c-0.1,0.1-0.2,0.2-0.2,0.2l-19.6,15.7l-3,1.1l0,0l-27.6,8.9c-1.4,0-2.7,0.6-3.8,1.4l0,0  c-1.6,1.2-2.6,3.1-2.6,5.3v5.4c0,3.7,3,6.6,6.6,6.6h21.1c23.3,0,27.9-5.5,28.4-6.2c0.2-0.2,0.2-0.4,0.2-0.6h5.3v5.5  c0,0.7,0.6,1.3,1.3,1.3h30.8c0.7,0,1.3-0.6,1.3-1.3v-6.9C-126.4,465.3-126.4,465.2-126.4,465.2z M-142.9,464c-0.1-0.5-0.1-1-0.1-1.5  c0-7.4,5.5-13.3,12.7-14.1l0.3,4h-3.1c-0.7,0-1.3,0.6-1.3,1.3c0,0.7,0.6,1.3,1.3,1.3h3.3l0.2,2.7h-8.2c-0.7,0-1.3,0.6-1.3,1.3  c0,0.7,0.6,1.3,1.3,1.3h8.4l0.3,3.8C-129.1,464-142.9,464-142.9,464z M-183.2,447c0.2-0.1,0.2-0.2,0.4-0.2l5.9-4.9l6.1,6.1  c0.2,0.2,0.6,0.4,0.9,0.4s0.6-0.2,0.9-0.4c0.5-0.5,0.5-1.3,0-1.8l-5.9-5.9l3.5-2.9l5.6,5.6c0.2,0.2,0.6,0.4,0.9,0.4s0.6-0.2,0.9-0.4  c0.5-0.5,0.5-1.3,0-1.8l-5.4-5.4l5.4-4.4c4.6,5.8,11.6,9.3,19.1,9.3c5,0,9.7-1.5,13.8-4.3l0.8,9.5c-8.5,0.9-14.9,7.9-14.9,16.6  c0,0.5,0,1,0.1,1.5h-13.4h-8.8c-0.2,0-0.5,0-0.6,0c-3.4-6.7-10.2-11.1-17.7-11.5v-4.7L-183.2,447z M-218.8,461.4  c0-1.3,0.6-2.5,1.6-3.2l29.1-9.5v5c0,0.7,0.6,1.3,1.3,1.3h0.2c6.6,0,12.6,3.5,16,9h-48.1v-2.6H-218.8z M-193.6,470.8h-21.1  c-2.2,0-4.1-1.8-4.1-4.1v-0.2h50.4C-170.7,468-177.2,470.8-193.6,470.8z M-128.9,470.8h-28.3v-4.3h28.4L-128.9,470.8L-128.9,470.8z"/><text x="-224" y="516" fill="#000000" font-size="5px" font-weight="bold" font-family="'Helvetica Neue', Helvetica, Arial-Unicode, Arial, Sans-serif">Created by Annie Lin</text><text x="-224" y="521" fill="#000000" font-size="5px" font-weight="bold" font-family="'Helvetica Neue', Helvetica, Arial-Unicode, Arial, Sans-serif">from the Noun Project</text></svg>