<svg xmlns="http://www.w3.org/2000/svg" xmlns:xlink="http://www.w3.org/1999/xlink" version="1.1" x="0px" y="0px" viewBox="-224 401 100 125" style="enable-background:new -224 401 100 100;" xml:space="preserve"><g><path d="M-126.5,428.8c0-0.2-0.1-0.6-0.2-0.8c0-0.2,0-0.3-0.1-0.5s-0.1-0.4-0.2-0.6s-0.1-0.5-0.2-0.6c0,0,0-0.1-0.1-0.1   c-0.4-1.2-1-2.3-1.9-3.3c-1.4-1.7-3.4-2.8-5.4-3.3c-12.6-3.1-36.3-6.6-55.3,4.3c-18.8,10.7-27.7,33.1-31.3,45.5   c-1,3.7-0.1,7.6,2.6,10.3c1.4,1.4,3,2.3,5,2.8c6.1,1.5,14.9,3.1,24.4,3.1c10.1,0,21.1-1.8,30.8-7.4c15.1-8.6,23.8-24.6,28.6-37.1   c1.2-3.1,2.2-6,2.9-8.5C-126.5,431.4-126.3,430.1-126.5,428.8z M-218.6,470.2c3.5-12,12.1-33.7,30.2-44.2c9.3-5.4,19.8-7,29.5-7   c9.4,0,17.9,1.6,23.8,3c0.9,0.2,1.6,0.6,2.3,1c-0.4,0.1-0.8,0.2-1.2,0.2c-0.3-0.2-0.7-0.4-1.1-0.3c-0.4,0.1-0.7,0.4-0.9,0.8   c-2.2,0.6-4.3,1.1-6.5,1.8h-0.1c-6.2,1.8-12.4,4.1-18.3,6.7l-3.7-4.2c-0.5-0.5-1.3-0.6-1.8-0.1s-0.6,1.3-0.1,1.8l3.2,3.6   c-2.3,1-4.6,2.2-6.8,3.4l-3.7-4.1c-0.5-0.5-1.3-0.6-1.8-0.1s-0.6,1.3-0.1,1.8l3.3,3.7c-2.2,1.2-4.3,2.5-6.4,3.8l-3.4-3.8   c-0.5-0.5-1.3-0.6-1.8-0.1s-0.6,1.3-0.1,1.8l3,3.4c-2.1,1.4-4.1,2.7-6.1,4.2l-3.5-3.9c-0.5-0.5-1.3-0.6-1.8-0.1s-0.6,1.3-0.1,1.8   l3.3,3.8c-2.2,1.6-4.3,3.4-6.5,5.1l-2.6-3c-0.5-0.5-1.3-0.6-1.8-0.1s-0.6,1.3-0.1,1.8l2.6,2.9c-5.6,4.9-10.9,10.2-15.8,15.9   l-0.1,0.1l0,0c-1.5,1.8-3,3.6-4.4,5.4C-218.8,475-219.2,472.5-218.6,470.2z M-159.5,476.2c-18.2,10.5-41.2,7-53.3,4   c-0.3-0.1-0.6-0.2-1-0.3c-0.1,0-0.2-0.1-0.2-0.1c-0.2-0.1-0.4-0.2-0.6-0.3c-0.1-0.1-0.2-0.1-0.2-0.2c-0.3-0.2-0.6-0.3-0.8-0.6   c1.3-1.7,2.6-3.4,4-5c0.7,0.4,1.4,0.7,2.2,0.9c5.4,1.4,12.8,2.6,20.8,2.6c3.3,0,6.7-0.2,10.1-0.8c0.7-0.1,1.1-0.7,1-1.4   s-0.7-1.1-1.4-1c-11.3,1.8-22.5,0-29.9-1.8c-0.4-0.1-0.8-0.2-1.2-0.4c4.6-5.2,9.4-10.1,14.6-14.6l4.1,4.6c0.2,0.2,0.6,0.4,1,0.4   c0.3,0,0.6-0.1,0.8-0.3c0.5-0.5,0.6-1.3,0.1-1.8l-4-4.5c2.1-1.8,4.2-3.4,6.5-5.1l3.4,3.8c0.2,0.2,0.6,0.4,1,0.4   c0.3,0,0.6-0.1,0.8-0.3c0.5-0.5,0.6-1.3,0.1-1.8l-3.2-3.5c2-1.4,4-2.8,6.1-4.1l3.6,4c0.2,0.2,0.6,0.4,1,0.4c0.3,0,0.6-0.1,0.8-0.3   c0.5-0.5,0.6-1.3,0.1-1.8l-3.3-3.7c2.1-1.3,4.2-2.6,6.4-3.8l3.4,3.8c0.2,0.2,0.6,0.4,1,0.4c0.3,0,0.6-0.1,0.8-0.3   c0.5-0.5,0.6-1.3,0.1-1.8l-3-3.4c2.2-1.2,4.5-2.3,6.8-3.4l3.4,3.8c0.2,0.2,0.6,0.4,1,0.4c0.3,0,0.6-0.1,0.8-0.3   c0.5-0.5,0.6-1.3,0.1-1.8l-2.9-3.2c4.9-2.2,9.9-4,15-5.6c-1.6,4.9-3.5,9.6-5.8,13.9c-0.3,0.6-0.1,1.4,0.6,1.7   c0.2,0.1,0.4,0.2,0.6,0.2c0.5,0,0.9-0.2,1.1-0.6c2.6-4.9,4.7-10.2,6.5-15.9c1.8-0.5,3.5-1,5.3-1.4c0,0.6-0.1,1.3-0.3,1.8   c-2.7,9.4-8.1,22.9-17.8,32.9c-0.5,0.5-0.5,1.3,0,1.8c0.2,0.2,0.6,0.3,0.9,0.3s0.6-0.2,0.9-0.4c10.1-10.5,15.6-24.2,18.4-34   c0.3-1,0.4-2.1,0.4-3.1c1-0.2,1.8-0.4,2.8-0.6c0,0.1,0.1,0.1,0.1,0.2c0.1,0.1,0.2,0.2,0.2,0.3c0.1,0.2,0.2,0.3,0.3,0.5   c0.1,0.1,0.1,0.2,0.2,0.3c0.1,0.2,0.2,0.3,0.2,0.5c0.1,0.2,0.1,0.2,0.2,0.4c0.1,0.2,0.1,0.3,0.2,0.6c0,0.2,0.1,0.2,0.1,0.4   s0.1,0.4,0.1,0.6s0,0.2,0.1,0.4c0,0.2,0,0.4,0,0.6s0,0.2,0,0.4c0,0.2,0,0.4-0.1,0.6c0,0.1,0,0.2,0,0.3c-0.1,0.3-0.2,0.6-0.2,1l0,0   C-132.8,444-141.4,465.7-159.5,476.2z"/><path d="M-159.7,466.2c-1.4,1-2.9,2-4.3,2.9c-0.6,0.3-0.8,1.1-0.5,1.8c0.2,0.4,0.6,0.6,1.1,0.6c0.2,0,0.4-0.1,0.6-0.2   c1.5-0.9,3.1-1.9,4.6-3c0.6-0.4,0.6-1.2,0.2-1.8C-158.4,466-159.2,465.8-159.7,466.2z"/></g><text x="-224" y="516" fill="#000000" font-size="5px" font-weight="bold" font-family="'Helvetica Neue', Helvetica, Arial-Unicode, Arial, Sans-serif">Created by Annie Lin</text><text x="-224" y="521" fill="#000000" font-size="5px" font-weight="bold" font-family="'Helvetica Neue', Helvetica, Arial-Unicode, Arial, Sans-serif">from the Noun Project</text></svg>