<svg xmlns="http://www.w3.org/2000/svg" xmlns:xlink="http://www.w3.org/1999/xlink" version="1.1" x="0px" y="0px" viewBox="-224 401 100 125" style="enable-background:new -224 401 100 100;" xml:space="preserve"><g><circle cx="-179.3" cy="417" r="2.9"/><circle cx="-168.6" cy="417" r="2.9"/><path d="M-137.7,463.9v-12.2c0-0.2,0-0.3-0.1-0.4c-0.7-6.6-6-11.9-12.7-12.4v-3.7c0-0.9-0.7-1.6-1.6-1.6h-16v-5.2h7   c0.9,0,1.6-0.7,1.6-1.6v-7.5h7.3c0.9,0,1.6-0.7,1.6-1.6s-0.7-1.6-1.6-1.6h-7.3v-7.5c0-0.9-0.7-1.6-1.6-1.6h-26   c-0.9,0-1.6,0.7-1.6,1.6v7.5h-7.3c-0.9,0-1.6,0.7-1.6,1.6s0.7,1.6,1.6,1.6h7.3v7.5c0,0.9,0.7,1.6,1.6,1.6h7v5.2h-16   c-0.9,0-1.6,0.7-1.6,1.6v3.7c-6.6,0.6-11.8,5.9-12.5,12.4c0,0.1-0.1,0.3-0.1,0.4V464c-3.9,0.7-6.8,4.2-6.8,8.2   c0,0.9,0.7,1.6,1.6,1.6s1.6-0.7,1.6-1.6c0-2.9,2.4-5.2,5.2-5.2c2.9,0,5.2,2.4,5.2,5.2c0,0.9,0.7,1.6,1.6,1.6s1.6-0.7,1.6-1.6   c0-4.1-2.9-7.5-6.8-8.2v-11.4c0-5.5,4.1-10,9.4-10.7v26.3c0,0.9,0.7,1.6,1.6,1.6h4.5v6.5h-2.8c-0.9,0-1.6,0.7-1.6,1.6v13.9h-5.6   c-0.9,0-1.6,0.7-1.6,1.6s0.7,1.6,1.6,1.6h7.2h16.7h7.6h16.7h7.2c0.9,0,1.6-0.7,1.6-1.6s-0.7-1.6-1.6-1.6h-5.7V478   c0-0.9-0.7-1.6-1.6-1.6h-2.8v-6.5h4.2c0.9,0,1.6-0.7,1.6-1.6V442c5.4,0.6,9.6,5.2,9.6,10.7V464c-3.9,0.7-6.8,4.2-6.8,8.2   c0,0.9,0.7,1.6,1.6,1.6c0.9,0,1.6-0.7,1.6-1.6c0-2.9,2.4-5.2,5.2-5.2c2.9,0,5.2,2.4,5.2,5.2c0,0.9,0.7,1.6,1.6,1.6   c0.9,0,1.6-0.7,1.6-1.6C-130.9,468.1-133.8,464.7-137.7,463.9z M-185.4,425.2v-7.3c0-0.1,0-0.1,0-0.2s0-0.1,0-0.2v-7.3h22.9v15h-7   h-8.8H-185.4z M-171.1,428.3v5.2h-5.7v-5.2H-171.1z M-179.3,491.8h-13.5v-12.3h2.8h8h2.8L-179.3,491.8L-179.3,491.8z M-188.5,476.4   v-6.5h4.9v6.5H-188.5z M-171.7,478v13.9h-4.4V478c0-0.9-0.7-1.6-1.6-1.6h-2.8v-6.5h13.1v6.5h-2.8C-171,476.4-171.7,477.1-171.7,478   z M-155.1,479.5v4.6h-6.8c-0.9,0-1.6,0.7-1.6,1.6s0.7,1.6,1.6,1.6h6.8v4.6h-13.5v-12.4h2.8h8L-155.1,479.5L-155.1,479.5z    M-164.3,476.4v-6.5h4.9v6.5H-164.3z M-153.6,466.7h-4.2h-8h-16.3h-8h-4.2v-30h16h8.8h16v30H-153.6z"/><path d="M-185.6,444.8c-0.9,0-1.6,0.7-1.6,1.6v9.3c0,0.9,0.7,1.6,1.6,1.6s1.6-0.7,1.6-1.6v-9.3C-184,445.5-184.8,444.8-185.6,444.8   z"/><path d="M-177.8,444.8c-0.9,0-1.6,0.7-1.6,1.6v9.3c0,0.9,0.7,1.6,1.6,1.6c0.9,0,1.6-0.7,1.6-1.6v-9.3   C-176.3,445.5-177,444.8-177.8,444.8z"/><path d="M-171.6,446.3v9.3c0,0.9,0.7,1.6,1.6,1.6c0.9,0,1.6-0.7,1.6-1.6v-9.3c0-0.9-0.7-1.6-1.6-1.6   C-170.9,444.8-171.6,445.5-171.6,446.3z"/><path d="M-162.3,457.2c0.9,0,1.6-0.7,1.6-1.6v-9.3c0-0.9-0.7-1.6-1.6-1.6s-1.6,0.7-1.6,1.6v9.3   C-163.8,456.5-163.1,457.2-162.3,457.2z"/></g><text x="-224" y="516" fill="#000000" font-size="5px" font-weight="bold" font-family="'Helvetica Neue', Helvetica, Arial-Unicode, Arial, Sans-serif">Created by Annie Lin</text><text x="-224" y="521" fill="#000000" font-size="5px" font-weight="bold" font-family="'Helvetica Neue', Helvetica, Arial-Unicode, Arial, Sans-serif">from the Noun Project</text></svg>