<?xml version="1.0" encoding="utf-8"?>
<!-- Generator: Adobe Illustrator 19.1.0, SVG Export Plug-In . SVG Version: 6.00 Build 0)  -->
<svg version="1.1"
	 id="Layer_1" xmlns:rdf="http://www.w3.org/1999/02/22-rdf-syntax-ns#" xmlns:cc="http://creativecommons.org/ns#" xmlns:svg="http://www.w3.org/2000/svg" xmlns:inkscape="http://www.inkscape.org/namespaces/inkscape" xmlns:sodipodi="http://sodipodi.sourceforge.net/DTD/sodipodi-0.dtd" xmlns:dc="http://purl.org/dc/elements/1.1/"
	 xmlns="http://www.w3.org/2000/svg" xmlns:xlink="http://www.w3.org/1999/xlink" x="0px" y="0px" viewBox="-49 51 100 100"
	 style="enable-background:new -49 51 100 100;" xml:space="preserve">
<style type="text/css">
	.st0{fill:#F4F4F5;}
</style>
<g transform="translate(0,-952.36218)">
	<path class="st0" d="M-35.7,1025.6c-1.9,0.2-3.2,1.9-3,3.7c0.2,1.8,1.8,3.2,3.7,3h11.3l1.6,5.9c0,0.1,0,0.2,0.1,0.3
		c0,0.2,0.1,0.4,0.1,0.6c0,0.1,0.1,0.3,0.1,0.4l7.2,27.4l0.6,2.5h2.6h35h2.6l0.6-2.5l0.9-3.4H0.9v-6.7h28.6l2-7.4H0.9v-6.7h32.4
		l1-3.8l1.1-4.3h-4.3h-47.2l-1.7-6.7l-0.6-2.5H-21h-14c-0.1,0-0.2,0-0.3,0C-35.5,1025.6-35.6,1025.6-35.7,1025.6L-35.7,1025.6z
		 M-4.1,1072.7c-2.8,0-5,2.3-5,5.1c0,2.8,2.2,5,5,5c2.8,0,5.1-2.2,5.1-5C1,1075-1.3,1072.7-4.1,1072.7z M15.2,1072.7
		c-2.8,0-5.1,2.3-5.1,5.1c0,2.8,2.3,5,5.1,5s5.1-2.2,5.1-5C20.3,1075,18,1072.7,15.2,1072.7z"/>
</g>
</svg>
