<svg xmlns="http://www.w3.org/2000/svg" xmlns:xlink="http://www.w3.org/1999/xlink" version="1.1" x="0px" y="0px" viewBox="0 0 100 125" enable-background="new 0 0 100 100" xml:space="preserve"><path d="M82.121,50c0,11.639-9.469,21.107-21.108,21.107S39.902,61.639,39.902,50s9.471-21.109,21.11-21.109  c4.313,0,8.424,1.295,11.905,3.686l-4.173,0.609l0.523,3.578l9.981-1.459l-1.464-9.98l-3.578,0.525l0.524,3.572  c-4.028-2.697-8.763-4.146-13.72-4.146c-13.634,0-24.726,11.092-24.726,24.725s11.092,24.725,24.726,24.725S85.738,63.633,85.738,50  H82.121z M54.666,34.316l-3.334,1.4l7.83,18.627l18.629-7.83l-1.4-3.334l-15.297,6.43L54.666,34.316z M21.013,39.891h12v-3.615h-12  V39.891z M31.013,48.191h-16.75v3.617h16.75V48.191z M21.013,63.725h12v-3.617h-12V63.725z"/><text x="0" y="115" fill="#000000" font-size="5px" font-weight="bold" font-family="'Helvetica Neue', Helvetica, Arial-Unicode, Arial, Sans-serif">Created by Sergey Demushkin</text><text x="0" y="120" fill="#000000" font-size="5px" font-weight="bold" font-family="'Helvetica Neue', Helvetica, Arial-Unicode, Arial, Sans-serif">from the Noun Project</text></svg>