<?xml version="1.0" encoding="utf-8"?>
<!-- Generator: Adobe Illustrator 19.1.0, SVG Export Plug-In . SVG Version: 6.00 Build 0)  -->
<svg version="1.1" id="Layer_1" xmlns="http://www.w3.org/2000/svg" xmlns:xlink="http://www.w3.org/1999/xlink" x="0px" y="0px"
	 viewBox="-49 38 100 125" style="enable-background:new -49 38 100 125;" xml:space="preserve">
<style type="text/css">
	.st0{fill:none;}
	.st1{fill:#B2DA64;}
	.st2{fill:none;stroke:#D7D6D3;stroke-miterlimit:10;}
</style>
<g>
	<path class="st0" d="M35,101.7v-3.4c-0.6,0.4-1,1-1,1.7S34.4,101.3,35,101.7z"/>
	<g>
		<path class="st0" d="M-2.6,83.5c0-8.1-6.6-14.7-14.7-14.7S-32,75.4-32,83.5s6.6,14.7,14.7,14.7C-9.2,98.1-2.6,91.5-2.6,83.5z
			 M-23.7,88.7l4.5-4.5c0-0.2-0.1-0.3-0.1-0.5c0-0.9,0.5-1.6,1.3-1.9v-9.3h2v9.7c0.4,0.4,0.7,0.9,0.7,1.5c0,1.1-0.9,2-2,2
			c-0.2,0-0.3,0-0.5-0.1l-4.5,4.5L-23.7,88.7z"/>
		<path class="st0" d="M-15.5,106.7c-2.6,0-4.8,2.1-4.8,4.8s2.1,4.8,4.8,4.8s4.8-2.1,4.8-4.8S-12.9,106.7-15.5,106.7z"/>
		<path class="st0" d="M-1.4,78.5c0.3,1,0.5,2,0.6,3H10v2H-0.6c0,1.7-0.3,3.4-0.8,5H10v2H-2.2c-0.9,1.9-2.1,3.6-3.6,5H10v2H-8v-0.2
			c-2.7,1.8-5.9,2.8-9.3,2.8c-2.8,0-5.4-0.7-7.7-1.9v12.3h2.8c0.5-3.3,3.3-5.8,6.7-5.8s6.2,2.5,6.7,5.8H14v-28v-4H-1.4z M10,104.5
			h-31v-2h31V104.5z"/>
		<polygon class="st0" points="22,93.5 32.3,93.5 28.5,88.5 22,88.5 		"/>
		<path class="st0" d="M33,104.5c0-1.8,1.4-3.4,3-3.8v-2.3l-2.1-2.9H20v-9h7l-1.5-2H16v26h1.8c0.5-3.3,3.3-5.8,6.7-5.8
			s6.2,2.5,6.7,5.8H36v-2.2C34.4,107.8,33,106.3,33,104.5z"/>
		<path class="st0" d="M24.5,106.7c-2.6,0-4.8,2.1-4.8,4.8s2.1,4.8,4.8,4.8s4.8-2.1,4.8-4.8S27.1,106.7,24.5,106.7z"/>
		<path class="st1" d="M26.5,82.5H16v-6H-2.2c-2.6-5.7-8.4-9.7-15.1-9.7c-9.2,0-16.7,7.5-16.7,16.7c0,5.6,2.8,10.5,7,13.5v15.5h4.8
			c0.5,3.2,3.3,5.7,6.7,5.7s6.2-2.5,6.7-5.7H14h2h1.8c0.5,3.2,3.3,5.7,6.7,5.7s6.2-2.5,6.7-5.7H38V97.6L26.5,82.5z M32.3,93.5H22v-5
			h6.5L32.3,93.5z M-32,83.5c0-8.1,6.6-14.7,14.7-14.7s14.7,6.6,14.7,14.7s-6.6,14.7-14.7,14.7C-25.4,98.1-32,91.5-32,83.5z
			 M-15.5,116.2c-2.6,0-4.8-2.1-4.8-4.8s2.1-4.8,4.8-4.8s4.8,2.1,4.8,4.8S-12.9,116.2-15.5,116.2z M14,110.5H-8.9
			c-0.5-3.3-3.3-5.8-6.7-5.8s-6.2,2.5-6.7,5.8H-25V98.2c2.3,1.2,4.9,1.9,7.7,1.9c3.4,0,6.6-1,9.3-2.8v0.2h18v-2H-5.8
			c1.5-1.4,2.7-3.1,3.6-5H10v-2H-1.4c0.5-1.6,0.8-3.3,0.8-5H10v-2H-0.8c-0.1-1-0.3-2-0.6-3H14v4V110.5z M24.5,116.2
			c-2.6,0-4.8-2.1-4.8-4.8s2.1-4.8,4.8-4.8s4.8,2.1,4.8,4.8S27.1,116.2,24.5,116.2z M31.1,110.5c-0.5-3.3-3.3-5.8-6.7-5.8
			s-6.2,2.5-6.7,5.8H16v-26h9.5l1.5,2h-7v9h13.9l2.1,2.8v2.3c-1.6,0.5-3,2-3,3.8c0,1.8,1.4,3.4,3,3.8v2.3H31.1z M36,102.8v3.4
			c-0.6-0.4-1-1-1-1.7C35,103.8,35.4,103.1,36,102.8z"/>
		<path class="st1" d="M-17.3,85.7c1.1,0,2-0.9,2-2c0-0.6-0.3-1.1-0.7-1.5v-9.7h-2v9.3c-0.8,0.3-1.3,1-1.3,1.9c0,0.2,0,0.3,0.1,0.5
			l-4.5,4.5l1.4,1.4l4.5-4.5C-17.6,85.7-17.5,85.7-17.3,85.7z"/>
		<rect x="-21" y="102.5" class="st1" width="31" height="2"/>
	</g>
	<circle class="st2" cx="1.1" cy="95.6" r="47.9"/>
</g>
</svg>
