<?xml version="1.0" encoding="utf-8"?>
<!-- Generator: Adobe Illustrator 19.1.0, SVG Export Plug-In . SVG Version: 6.00 Build 0)  -->
<svg version="1.1" id="Layer_1" xmlns="http://www.w3.org/2000/svg" xmlns:xlink="http://www.w3.org/1999/xlink" x="0px" y="0px"
	 viewBox="-49 38 100 125" style="enable-background:new -49 38 100 125;" xml:space="preserve">
<style type="text/css">
	.st0{fill:#B2DA64;}
</style>
<path class="st0" d="M-28.6,99.9l-6.4,6.4c-0.4,0.4-0.9,0.6-1.3,0.6s-1-0.2-1.3-0.6l-6.4-6.4c-0.7-0.7-0.7-1.9,0-2.7
	c0.7-0.7,1.9-0.7,2.7,0l3.1,3.1c0-21.1,17.2-38.2,38.3-38.2c1,0,1.9,0.8,1.9,1.9c0,0.2,0,0.4-0.1,0.5c-0.2,0.8-0.9,1.4-1.8,1.4l0,0
	c-19,0-34.5,15.5-34.5,34.5l0,0l3.2-3.2c0.7-0.7,1.9-0.7,2.7,0C-27.8,98-27.8,99.2-28.6,99.9z M7.2,66.7c0.1,0,0.3,0,0.4,0
	c0.9,0,1.7-0.6,1.8-1.5c0.2-1-0.4-2-1.5-2.2c-1-0.2-2,0.4-2.2,1.5C5.5,65.5,6.1,66.5,7.2,66.7z M20.2,72.4c0.3,0.2,0.7,0.4,1.1,0.4
	c0.6,0,1.2-0.3,1.5-0.8c0.6-0.9,0.4-2-0.4-2.6l0,0c-0.9-0.6-2-0.4-2.6,0.4C19.1,70.7,19.3,71.8,20.2,72.4z M26.9,77.8
	c0.5,0,0.9-0.2,1.3-0.5c0.8-0.7,0.8-1.9,0.1-2.7c-0.7-0.8-1.9-0.8-2.7-0.1s-0.8,1.9-0.1,2.7C25.9,77.6,26.4,77.8,26.9,77.8z
	 M32.8,89.4L32.8,89.4c0.3,0.8,1,1.3,1.8,1.3c0.2,0,0.4,0,0.6-0.1c1-0.3,1.5-1.4,1.2-2.4S35,86.7,34,87C33,87.4,32.4,88.5,32.8,89.4
	z M-32.4,112.4c-0.4-1-1.4-1.5-2.4-1.1s-1.5,1.4-1.1,2.4c0.3,0.8,1,1.2,1.8,1.2c0.2,0,0.4,0,0.7-0.1
	C-32.5,114.4-32,113.3-32.4,112.4z M31.4,83.9c0.3,0,0.7-0.1,1-0.3c0.9-0.5,1.2-1.7,0.7-2.6s-1.7-1.2-2.6-0.7s-1.2,1.7-0.7,2.6
	C30.1,83.5,30.8,83.9,31.4,83.9z M14,68.9c0.2,0.1,0.5,0.2,0.8,0.2c0.7,0,1.4-0.4,1.7-1.1c0.4-1,0-2.1-1-2.5s-2.1,0-2.5,1
	C12.6,67.3,13,68.5,14,68.9z M-13,132.4c-1-0.4-2.1,0.1-2.5,1c-0.4,1,0.1,2.1,1,2.5c0.2,0.1,0.5,0.1,0.7,0.1c0.7,0,1.5-0.4,1.7-1.2
	C-11.6,133.9-12,132.8-13,132.4z M-6.1,134.4c-1-0.2-2,0.5-2.2,1.5s0.5,2,1.5,2.2c0.1,0,0.2,0,0.3,0c0.9,0,1.7-0.6,1.9-1.6
	C-4.4,135.6-5.1,134.6-6.1,134.4z M-27.5,124.4c-0.8,0.7-0.8,1.9-0.1,2.7c0.4,0.4,0.9,0.6,1.4,0.6s0.9-0.2,1.3-0.5
	c0.8-0.7,0.8-1.9,0-2.7C-25.5,123.7-26.7,123.6-27.5,124.4z M-31.8,118.2c-0.9,0.6-1.2,1.7-0.6,2.6c0.4,0.6,1,0.9,1.6,0.9
	c0.3,0,0.7-0.1,1-0.3c0.9-0.6,1.1-1.7,0.6-2.6C-29.8,117.9-30.9,117.6-31.8,118.2z M-19.3,129c-0.9-0.6-2-0.4-2.6,0.5
	s-0.4,2,0.5,2.6c0.3,0.2,0.7,0.3,1.1,0.3c0.6,0,1.2-0.3,1.6-0.8C-18.2,130.8-18.5,129.6-19.3,129z M43.9,101.1l-6.4-6.4
	c-0.7-0.7-1.9-0.7-2.7,0l-6.4,6.4c-0.7,0.7-0.7,1.9,0,2.7c0.4,0.4,0.9,0.6,1.3,0.6s1-0.2,1.3-0.6l3.2-3.2l0,0
	c0,19-15.5,34.5-34.5,34.5c-1,0-1.9,0.8-1.9,1.9s0.8,1.9,1.9,1.9c21.1,0,38.3-17.1,38.3-38.2l3.1,3.1c0.4,0.4,0.9,0.6,1.3,0.6
	s1-0.2,1.3-0.6C44.6,103,44.6,101.8,43.9,101.1z M-2,121.8c0,1,0.8,1.9,1.9,1.9c1,0,1.9-0.8,1.9-1.9v-5.1H3h0.1h0.1
	c5,0,9.1-4.1,9.1-9.1s-4.1-9.1-9.1-9.1H1.8v-9.6v-1.1h6.4c1,0,1.9-0.8,1.9-1.9c0-1-0.8-1.9-1.9-1.9H1.8v-5c0-1-0.8-1.9-1.9-1.9
	c-1,0-1.9,0.8-1.9,1.9v5h-1.4c-5,0-9.1,4.1-9.1,9.1s4.1,9.1,9.1,9.1H-2v9.4v1.2h-6.6c-1,0-1.9,0.8-1.9,1.9c0,1,0.8,1.9,1.9,1.9H-2
	L-2,121.8L-2,121.8z M1.8,111.8v-9.4h1.4c2.9,0,5.3,2.4,5.3,5.3S6.1,113,3.2,113H3.1H3H1.8V111.8L1.8,111.8z M-3.4,98.6
	c-2.9,0-5.3-2.4-5.3-5.3S-6.3,88-3.4,88H-2v1.1v9.6L-3.4,98.6L-3.4,98.6z"/>
</svg>
