<?xml version="1.0" encoding="utf-8"?>
<!-- Generator: Adobe Illustrator 19.1.0, SVG Export Plug-In . SVG Version: 6.00 Build 0)  -->
<svg version="1.1" id="Layer_1" xmlns="http://www.w3.org/2000/svg" xmlns:xlink="http://www.w3.org/1999/xlink" x="0px" y="0px"
	 viewBox="-49 38 100 125" style="enable-background:new -49 38 100 125;" xml:space="preserve">
<style type="text/css">
	.st0{fill:#B2DA64;}
	.st1{fill:none;stroke:#D7D6D3;stroke-miterlimit:10;}
</style>
<path class="st0" d="M-24.7,99.5l-5.7,5.7c-0.4,0.4-0.8,0.5-1.1,0.5c-0.4,0-0.9-0.2-1.1-0.5l-5.7-5.7c-0.6-0.6-0.6-1.7,0-2.4
	c0.6-0.6,1.7-0.6,2.4,0l2.7,2.7c0-18.6,15.2-33.7,33.8-33.7c0.9,0,1.7,0.7,1.7,1.7c0,0.2,0,0.4-0.1,0.4c-0.2,0.7-0.8,1.2-1.6,1.2
	l0,0c-16.8,0-30.5,13.7-30.5,30.5l0,0l2.8-2.8c0.6-0.6,1.7-0.6,2.4,0C-24,97.8-24,98.9-24.7,99.5z M7,70.1c0.1,0,0.3,0,0.4,0
	c0.8,0,1.5-0.5,1.6-1.3c0.2-0.9-0.4-1.8-1.3-1.9c-0.9-0.2-1.8,0.4-1.9,1.3C5.5,69.1,6,70,7,70.1z M18.4,75.2c0.3,0.2,0.6,0.4,1,0.4
	c0.5,0,1.1-0.3,1.3-0.7c0.5-0.8,0.4-1.8-0.4-2.3l0,0c-0.8-0.5-1.8-0.4-2.3,0.4C17.5,73.7,17.6,74.6,18.4,75.2z M24.4,79.9
	c0.4,0,0.8-0.2,1.1-0.4c0.7-0.6,0.7-1.7,0.1-2.4s-1.7-0.7-2.4-0.1c-0.7,0.6-0.7,1.7-0.1,2.4C23.5,79.8,23.9,79.9,24.4,79.9z
	 M29.6,90.2L29.6,90.2c0.3,0.7,0.9,1.1,1.6,1.1c0.2,0,0.4,0,0.5-0.1c0.9-0.3,1.3-1.2,1.1-2.1s-1.2-1.3-2.1-1.1
	C29.7,88.4,29.2,89.4,29.6,90.2z M-28,110.5c-0.4-0.9-1.2-1.3-2.1-1s-1.3,1.2-1,2.1c0.3,0.7,0.9,1.1,1.6,1.1c0.2,0,0.4,0,0.6-0.1
	C-28.1,112.3-27.7,111.3-28,110.5z M28.3,85.3c0.3,0,0.6-0.1,0.9-0.3c0.8-0.4,1.1-1.5,0.6-2.3c-0.4-0.8-1.5-1.1-2.3-0.6
	c-0.8,0.4-1.1,1.5-0.6,2.3C27.2,85,27.8,85.3,28.3,85.3z M13,72.1c0.2,0.1,0.4,0.2,0.7,0.2c0.6,0,1.2-0.4,1.5-1
	c0.4-0.9,0-1.9-0.9-2.2c-0.9-0.4-1.9,0-2.2,0.9C11.7,70.7,12.1,71.7,13,72.1z M-10.9,128.2c-0.9-0.4-1.9,0.1-2.2,0.9
	c-0.4,0.9,0.1,1.9,0.9,2.2c0.2,0.1,0.4,0.1,0.6,0.1c0.6,0,1.3-0.4,1.5-1.1C-9.6,129.5-10,128.5-10.9,128.2z M-4.8,129.9
	c-0.9-0.2-1.8,0.4-1.9,1.3c-0.2,0.9,0.4,1.8,1.3,1.9c0.1,0,0.2,0,0.3,0c0.8,0,1.5-0.5,1.7-1.4C-3.3,131-3.9,130.1-4.8,129.9z
	 M-23.7,121.1c-0.7,0.6-0.7,1.7-0.1,2.4c0.4,0.4,0.8,0.5,1.2,0.5s0.8-0.2,1.1-0.4c0.7-0.6,0.7-1.7,0-2.4
	C-21.9,120.5-23,120.4-23.7,121.1z M-27.5,115.6c-0.8,0.5-1.1,1.5-0.5,2.3c0.4,0.5,0.9,0.8,1.4,0.8c0.3,0,0.6-0.1,0.9-0.3
	c0.8-0.5,1-1.5,0.5-2.3C-25.7,115.4-26.7,115.1-27.5,115.6z M-16.4,125.2c-0.8-0.5-1.8-0.4-2.3,0.4c-0.5,0.8-0.4,1.8,0.4,2.3
	c0.3,0.2,0.6,0.3,1,0.3c0.5,0,1.1-0.3,1.4-0.7C-15.5,126.8-15.7,125.7-16.4,125.2z M39.4,100.5l-5.7-5.7c-0.6-0.6-1.7-0.6-2.4,0
	l-5.7,5.7c-0.6,0.6-0.6,1.7,0,2.4c0.4,0.4,0.8,0.5,1.1,0.5c0.4,0,0.9-0.2,1.1-0.5l2.8-2.8l0,0c0,16.8-13.7,30.5-30.5,30.5
	c-0.9,0-1.7,0.7-1.7,1.7c0,1,0.7,1.7,1.7,1.7c18.6,0,33.8-15.1,33.8-33.7l2.7,2.7c0.4,0.4,0.8,0.5,1.1,0.5s0.9-0.2,1.1-0.5
	C40,102.2,40,101.1,39.4,100.5z M4.2,98.8c-1.1-0.6-2.1-1-3.3-1.5c-0.6-0.3-1.2-0.5-1.8-1c-1.1-0.9-0.9-2.2,0.4-2.7
	c0.4-0.2,0.7-0.2,1.1-0.3c1.4-0.1,2.8,0.2,4.1,0.8c0.6,0.4,0.9,0.2,1.1-0.4c0.3-0.7,0.4-1.4,0.6-2.1c0.2-0.4,0-0.8-0.5-1
	c-0.8-0.4-1.7-0.6-2.6-0.8c-1.1-0.2-1.1-0.2-1.1-1.3c0-1.7,0-1.7-1.7-1.7c-0.3,0-0.4,0-0.7,0c-0.8,0-0.9,0.2-1,1c0,0.4,0,0.7,0,1.1
	c0,1.1,0,1.1-1,1.4c-2.4,0.9-3.9,2.6-4.1,5.1c-0.2,2.3,1.1,3.9,3,5c1.1,0.7,2.5,1.1,3.7,1.7c0.5,0.2,1,0.4,1.3,0.8
	c1.2,1,1,2.6-0.4,3.3c-0.8,0.4-1.6,0.4-2.4,0.4c-1.2-0.2-2.5-0.5-3.6-1.1c-0.7-0.4-0.9-0.3-1.1,0.4c-0.2,0.6-0.4,1.2-0.5,1.9
	c-0.3,0.9-0.2,1.1,0.7,1.4c1.1,0.5,2.1,0.8,3.3,1c0.9,0.2,0.9,0.2,0.9,1.1c0,0.4,0,0.8,0,1.2c0,0.5,0.3,0.8,0.8,0.9
	c0.6,0,1.2,0,1.9,0c0.5,0,0.8-0.3,0.8-0.8s0-1.1,0-1.7c0-0.6,0.3-0.9,0.8-1.1c1.3-0.4,2.4-1.1,3.3-2C8.5,104.8,7.5,100.6,4.2,98.8z"
	/>
<circle class="st1" cx="1" cy="100" r="47.9"/>
</svg>
