<?xml version="1.0" encoding="utf-8"?>
<!-- Generator: Adobe Illustrator 19.1.0, SVG Export Plug-In . SVG Version: 6.00 Build 0)  -->
<svg version="1.1" xmlns="http://www.w3.org/2000/svg" xmlns:xlink="http://www.w3.org/1999/xlink" x="0px" y="0px"
	 viewBox="0 0 300 300" style="enable-background:new 0 0 300 300;" xml:space="preserve">
<style type="text/css">
	.st0{fill:#6FC27D;}
	.st1{display:none;}
	.st2{fill:#F7F9F8;}
	.st3{display:inline;fill:#517376;}
</style>
<g id="Layer_1">
	<g id="Layer_2">
		<g>
			<path class="st0" d="M164.6,138.9h-10.9c-0.6,0-1.2,0.5-1.2,1.2s0.5,1.2,1.2,1.2h10.9c0.6,0,1.2-0.5,1.2-1.2
				S165.3,138.9,164.6,138.9z"/>
			<path class="st0" d="M164.6,135.9h-10.9c-0.6,0-1.2,0.5-1.2,1.2s0.5,1.2,1.2,1.2h10.9c0.6,0,1.2-0.5,1.2-1.2
				S165.3,135.9,164.6,135.9z"/>
			<path class="st0" d="M164.6,132.9h-10.9c-0.6,0-1.2,0.5-1.2,1.2s0.5,1.2,1.2,1.2h10.9c0.6,0,1.2-0.5,1.2-1.2
				S165.3,132.9,164.6,132.9z"/>
			<path class="st0" d="M164.6,129.9h-10.9c-0.6,0-1.2,0.5-1.2,1.2s0.5,1.2,1.2,1.2h10.9c0.6,0,1.2-0.5,1.2-1.2
				S165.3,129.9,164.6,129.9z"/>
			<path class="st0" d="M166.5,131.1c0,0.6,0.5,1.2,1.2,1.2h0.6L166.5,131.1C166.6,131.1,166.5,131.1,166.5,131.1z"/>
			<path class="st0" d="M178.6,129.9h-10.9c-0.6,0-1.1,0.5-1.2,1.1l1.8,1.3h10.3c0.6,0,1.2-0.5,1.2-1.2S179.3,129.9,178.6,129.9z"/>
			<path class="st0" d="M178.6,126.9h-10.9c-0.6,0-1.2,0.5-1.2,1.2s0.5,1.2,1.2,1.2h10.9c0.6,0,1.2-0.5,1.2-1.2
				S179.3,126.9,178.6,126.9z"/>
			<path class="st0" d="M178.6,123.9h-10.9c-0.6,0-1.2,0.5-1.2,1.2s0.5,1.2,1.2,1.2h10.9c0.6,0,1.2-0.5,1.2-1.2
				S179.3,123.9,178.6,123.9z"/>
			<path class="st0" d="M167.7,123.3h10.9c0.6,0,1.2-0.5,1.2-1.2s-0.5-1.2-1.2-1.2h-10.9c-0.6,0-1.2,0.5-1.2,1.2
				S167.1,123.3,167.7,123.3z"/>
		</g>
		<path class="st0" d="M154.8,123.3h-1.2c-0.6,0-1-0.5-1-1V122c0-0.6,0.5-1,1-1h1.2c0.6,0,1,0.5,1,1v0.3
			C155.8,122.8,155.3,123.3,154.8,123.3z"/>
		<path class="st0" d="M158.8,126.3h-5.1c-0.6,0-1.2-0.5-1.2-1.2l0,0c0-0.6,0.5-1.2,1.2-1.2h5.1c0.6,0,1.2,0.5,1.2,1.2l0,0
			C160,125.8,159.5,126.3,158.8,126.3z"/>
		<path class="st0" d="M163,129.3h-9.3c-0.6,0-1.2-0.5-1.2-1.2l0,0c0-0.6,0.5-1.2,1.2-1.2h9.3c0.6,0,1.2,0.5,1.2,1.2l0,0
			C164.2,128.8,163.6,129.3,163,129.3z"/>
		<path class="st0" d="M178.6,135.3h-9.1c-0.6,0-1.2-0.5-1.2-1.2l0,0c0-0.6,0.5-1.2,1.2-1.2h9.1c0.6,0,1.2,0.5,1.2,1.2l0,0
			C179.8,134.8,179.3,135.3,178.6,135.3z"/>
		<path class="st0" d="M178.6,138.3h-5c-0.6,0-1.2-0.5-1.2-1.2l0,0c0-0.6,0.5-1.2,1.2-1.2h5c0.6,0,1.2,0.5,1.2,1.2l0,0
			C179.8,137.8,179.3,138.3,178.6,138.3z"/>
		<path class="st0" d="M178.8,141.3h-1.2c-0.6,0-1-0.5-1-1V140c0-0.6,0.5-1,1-1h1.2c0.6,0,1,0.5,1,1v0.3
			C179.8,140.8,179.3,141.3,178.8,141.3z"/>
	</g>
	<g class="st1">
		<g>
			<path class="st2" d="M188.9,117.1l-1.7,3.1c-0.2,0.3-0.7,0.3-0.9,0l-1.8-3.1c-0.1-0.2-0.3-0.2-0.4-0.2l-2.6,0
				c-0.4,0-0.6,0.4-0.4,0.8l5.4,9.1c0.2,0.3,0.7,0.3,0.9,0l5.1-9.2c0.2-0.3-0.1-0.7-0.4-0.7l-2.6,0C189.2,116.9,189,117,188.9,117.1
				z"/>
		</g>
	</g>
</g>
<g id="Layer_3" class="st1">
	<path class="st3" d="M180,117.6c-0.1,0-0.3,0-0.4,0l-4.1,2.4c-0.2,0.1-0.3,0.5-0.2,0.7l8.3,14.2c0,0.1,0.1,0.1,0.1,0.2
		c0.1,0.1,0.3,0.2,0.5,0.2c0.2,0,0.3-0.2,0.4-0.4l1.7-6.4c0-0.1,0-0.3-0.1-0.4l-6-10.3C180.3,117.7,180.2,117.6,180,117.6z
		 M177.1,125.1l-20.9,12.2c-0.7,0.4-0.9,1.3-0.5,2l1,1.7c0.4,0.7,1.3,0.9,2,0.5l20.9-12.2L177.1,125.1z"/>
</g>
</svg>
