<?xml version="1.0" encoding="utf-8"?>
<!-- Generator: Adobe Illustrator 19.1.0, SVG Export Plug-In . SVG Version: 6.00 Build 0)  -->
<svg version="1.1" id="Layer_1" xmlns="http://www.w3.org/2000/svg" xmlns:xlink="http://www.w3.org/1999/xlink" x="0px" y="0px"
	 viewBox="-49 38 100 125" style="enable-background:new -49 38 100 125;" xml:space="preserve">
<style type="text/css">
	.st0{fill:#B2DA64;}
	.st1{fill:none;stroke:#D7D6D3;stroke-miterlimit:10;}
</style>
<g>
	<path class="st0" d="M25.9,70.6c-0.8-0.8-1.8-1.2-2.9-1.1l-2.4,0.1c-0.1-0.2-0.2-0.4-0.4-0.5c-0.9-0.9-2-1.4-3.3-1.2l-18.5,1.3
		c-2.1,0.1-4.9,1.4-6.4,2.9l-28.6,28.6c-1.7,1.7-1.7,4.6,0,6.4l18.6,18.6c0.9,0.9,2,1.3,3.2,1.3c0.7,0,1.3-0.1,1.9-0.4l1.2,1.2
		c0.7,0.7,1.6,1,2.6,1c0.1,0,0.3,0,0.4,0c1.1-0.1,2.2-0.7,3-1.4l28.6-28.6c1.5-1.5,2.7-4.3,2.9-6.4L27,73.9
		C27.1,72.7,26.7,71.5,25.9,70.6z M-16.2,124.1l-18.6-18.6c-0.8-0.8-0.8-2.1,0-2.9l28.5-28.7c1.1-1.1,3.3-2.1,4.8-2.2L17,70.3
		c0.1,0,0.1,0,0.1,0c0.5,0,0.9,0.1,1.2,0.5c0.3,0.3,0.4,0.8,0.4,1.2l-1.3,18.5c-0.1,1.5-1.2,3.8-2.2,4.8l-28.5,28.7
		C-14.1,124.9-15.4,124.9-16.2,124.1z M23.3,92.3c-0.1,1.5-1.2,3.8-2.2,4.8l-28.6,28.6c-0.4,0.4-0.9,0.7-1.4,0.7c-0.2,0-0.7,0-1-0.3
		l-0.9-0.9l28-28c1.5-1.5,2.7-4.3,2.9-6.4l1.4-18.6c0-0.1,0-0.1,0-0.1l1.9-0.1c0.4,0,0.7,0.1,1,0.4c0.4,0.4,0.5,0.9,0.4,1.4
		L23.3,92.3z"/>
	<path class="st0" d="M9.3,86.2c3.2,0,5.8-2.6,5.8-5.8c0-3.2-2.6-5.8-5.8-5.8s-5.8,2.6-5.8,5.8C3.6,83.6,6.2,86.2,9.3,86.2z
		 M9.3,77.1c1.8,0,3.3,1.4,3.3,3.3s-1.4,3.3-3.3,3.3S6,82.3,6,80.4S7.5,77.1,9.3,77.1z"/>
	<path class="st0" d="M-25.7,102.9c-0.6-0.6-1.5-0.6-2.1,0c-0.6,0.6-0.6,1.5,0,2.1l11.6,11.6c0.3,0.3,0.7,0.4,1.1,0.4
		c0.4,0,0.8-0.1,1.1-0.4c0.6-0.6,0.6-1.5,0-2.1L-25.7,102.9z"/>
	<path class="st0" d="M-19.9,97.1c-0.6-0.6-1.5-0.6-2.1,0c-0.6,0.6-0.6,1.5,0,2.1l11.6,11.6c0.3,0.3,0.7,0.4,1.1,0.4
		c0.4,0,0.8-0.1,1.1-0.4c0.6-0.6,0.6-1.5,0-2.1L-19.9,97.1z"/>
</g>
<circle class="st1" cx="1" cy="95.6" r="47.9"/>
</svg>
